<svg xmlns="http://www.w3.org/2000/svg" viewBox="0 0 64 64">
	<defs>
		<radialGradient id="bg" cx="30%" cy="30%" r="70%">
			<stop offset="0%" stop-color="#f9f1ff" />
			<stop offset="100%" stop-color="#f1e5ff" />
		</radialGradient>
		<radialGradient id="fur" cx="40%" cy="35%" r="60%">
			<stop offset="0%" stop-color="#fefefe" />
			<stop offset="100%" stop-color="#d2d6e7" />
		</radialGradient>
		<radialGradient id="ear" cx="50%" cy="50%" r="50%">
			<stop offset="0%" stop-color="#fdd8e5" />
			<stop offset="100%" stop-color="#f4a5c3" />
		</radialGradient>
	</defs>

	<rect width="64" height="64" rx="16" fill="url(#bg)" />
	<circle cx="20" cy="20" r="14" fill="url(#fur)" />
	<circle cx="44" cy="20" r="14" fill="url(#fur)" />
	<circle cx="20" cy="20" r="9" fill="url(#ear)" opacity="0.8" />
	<circle cx="44" cy="20" r="9" fill="url(#ear)" opacity="0.8" />
	<ellipse cx="32" cy="36" rx="22" ry="20" fill="url(#fur)" />
	<circle cx="26" cy="34" r="3" fill="#333" />
	<circle cx="38" cy="34" r="3" fill="#333" />
	<circle cx="32" cy="38" r="3" fill="#f39ab5" />
	<path d="M22 44c4 3 8 3 10 0" stroke="#c67b9a" stroke-width="2" fill="none" stroke-linecap="round" />
	<path d="M32 44c2 3 6 3 10 0" stroke="#c67b9a" stroke-width="2" fill="none" stroke-linecap="round" />
	<path d="M28 48c0 4 8 4 8 0" stroke="#a0a4c0" stroke-width="2" fill="none" stroke-linecap="round" />
	<path d="M6 40c6-4 20-4 20 4" stroke="#c67b9a" stroke-width="2" stroke-linecap="round" fill="none" opacity="0.7" />
	<path d="M58 40c-6-4-20-4-20 4" stroke="#c67b9a" stroke-width="2" stroke-linecap="round" fill="none" opacity="0.7" />
</svg>
